<svg version="1.1" id="Layer_1" xmlns="http://www.w3.org/2000/svg" xmlns:xlink="http://www.w3.org/1999/xlink" x="0px" y="0px"
	 width="100%" viewBox="0 0 237 245" enable-background="new 0 0 237 245" xml:space="preserve">
<path fill="#000000" opacity="1.000000" stroke="none" 
	d="
M134.000000,246.000000 
	C89.333336,246.000000 45.166672,246.000000 1.000006,246.000000 
	C1.000004,164.333344 1.000004,82.666679 1.000002,1.000017 
	C79.999992,1.000011 158.999985,1.000011 237.999969,1.000006 
	C237.999985,82.666649 237.999985,164.333298 238.000000,245.999969 
	C203.500000,246.000000 169.000000,246.000000 134.000000,246.000000 
M234.768982,134.745941 
	C234.849991,130.621384 235.081146,126.492767 234.969955,122.373398 
	C234.857773,118.217407 234.405853,114.070602 233.978516,109.094078 
	C233.259872,105.725883 232.541214,102.357697 231.890884,98.222633 
	C229.982773,92.147903 228.074661,86.073166 226.788376,79.713684 
	C226.315735,78.858376 225.843109,78.003059 225.107040,76.412216 
	C221.186874,66.048775 216.308731,56.213425 208.620956,48.074078 
	C203.881851,43.056625 199.019089,38.133541 193.930435,33.475498 
	C189.527878,29.445461 185.164276,25.047798 180.006027,22.241751 
	C171.495789,17.612244 162.600830,13.394669 153.414383,10.390782 
	C145.085037,7.667167 136.216095,6.069235 127.467064,5.275485 
	C114.055923,4.058767 100.858849,5.943213 87.865601,9.914005 
	C67.275169,16.206530 49.601562,26.987787 36.110294,43.697105 
	C29.252733,52.190392 23.773958,61.849564 18.132978,71.258133 
	C12.121303,81.284996 10.113224,92.682846 8.032742,104.860023 
	C6.238923,116.213768 6.182568,127.609009 7.212294,139.826538 
	C7.811878,143.064285 8.434927,146.297913 9.007264,149.540466 
	C12.945868,171.854507 23.328135,190.981903 38.837440,207.152908 
	C49.440903,218.208755 61.564198,227.587143 76.184433,233.036835 
	C87.852371,237.386063 99.477585,242.042175 112.380730,240.810608 
	C115.021416,240.558563 117.718262,240.661194 120.373734,240.835770 
	C136.927338,241.924103 152.440689,238.163101 167.811325,232.145599 
	C183.601288,225.963928 194.586716,213.721146 206.257050,202.690262 
	C213.433395,195.907120 217.815704,186.047791 222.988602,177.295486 
	C229.560608,166.175949 231.018494,153.621109 232.713470,140.670212 
	C233.130554,138.831863 233.547638,136.993515 234.768982,134.745941 
z"/>
<path fill="#00833A" opacity="1.000000" stroke="none" 
	d="
M232.099213,141.041504 
	C231.018494,153.621109 229.560608,166.175949 222.988602,177.295486 
	C217.815704,186.047791 213.433395,195.907120 206.257050,202.690262 
	C194.586716,213.721146 183.601288,225.963928 167.811325,232.145599 
	C152.440689,238.163101 136.927338,241.924103 120.373734,240.835770 
	C117.718262,240.661194 115.021416,240.558563 112.380730,240.810608 
	C99.477585,242.042175 87.852371,237.386063 76.184433,233.036835 
	C61.564198,227.587143 49.440903,218.208755 38.837440,207.152908 
	C23.328135,190.981903 12.945868,171.854507 9.007264,149.540466 
	C8.434927,146.297913 7.811878,143.064285 7.442568,139.084778 
	C7.785955,130.105469 7.897948,121.867928 8.012741,113.630424 
	C8.057359,110.428719 8.108294,107.227104 8.156350,104.025444 
	C10.113224,92.682846 12.121303,81.284996 18.132978,71.258133 
	C23.773958,61.849564 29.252733,52.190392 36.110294,43.697105 
	C49.601562,26.987787 67.275169,16.206530 87.865601,9.914005 
	C100.858849,5.943213 114.055923,4.058767 127.467064,5.275485 
	C136.216095,6.069235 145.085037,7.667167 153.414383,10.390782 
	C162.600830,13.394669 171.495789,17.612244 180.006027,22.241751 
	C185.164276,25.047798 189.527878,29.445461 193.930435,33.475498 
	C199.019089,38.133541 203.881851,43.056625 208.620956,48.074078 
	C216.308731,56.213425 221.186874,66.048775 225.338013,77.058586 
	C225.768173,78.469452 225.967361,79.233940 226.166534,79.998436 
	C228.074661,86.073166 229.982773,92.147903 231.541260,98.712616 
	C230.956757,99.758102 230.497574,100.322853 230.520035,100.867737 
	C230.975403,111.903488 231.497742,122.936447 231.976227,133.971298 
	C232.078308,136.325378 232.061325,138.684631 232.099213,141.041504 
M104.741608,168.616104 
	C104.276497,168.400223 103.811378,168.184341 102.911301,167.393356 
	C100.777962,164.958786 98.321297,162.731842 96.591591,160.038116 
	C94.333580,156.521622 92.790962,152.505371 87.324493,155.104828 
	C86.408081,155.540604 85.068420,155.086273 83.162277,155.035080 
	C80.483162,155.840881 77.729485,156.463776 75.150421,157.515045 
	C73.348022,158.249710 70.235405,159.940338 70.384537,160.564819 
	C71.004158,163.159500 72.639709,165.511551 74.360023,168.482544 
	C82.187386,184.330231 95.765976,191.391464 112.842606,194.264755 
	C112.842606,195.653885 112.837898,197.806717 112.843391,199.959518 
	C112.870506,210.591019 114.761330,211.900726 125.476738,208.750137 
	C126.215691,208.532867 127.000023,208.469925 127.974258,208.297958 
	C127.974258,204.376602 127.680939,200.697800 128.112793,197.106171 
	C128.295898,195.583206 129.699066,193.647644 131.079224,192.947845 
	C133.712570,191.612625 136.741913,191.073502 139.581116,190.126617 
	C153.872589,185.360397 163.037933,175.252930 167.151733,161.211273 
	C172.990112,141.283157 167.085114,127.604126 148.547256,119.072441 
	C142.275543,116.186012 135.563309,114.256699 129.011459,110.968277 
	C129.008301,105.473900 128.893265,99.976677 129.032608,94.485916 
	C129.179489,88.698143 129.569260,82.916542 130.576736,77.081711 
	C137.376480,80.386078 141.335526,86.092575 143.324890,93.271599 
	C150.234894,90.915787 156.459702,88.793579 163.892700,86.259468 
	C161.940140,81.672966 160.726639,76.846024 158.080902,73.005821 
	C151.957535,64.117859 143.553726,58.127018 132.689346,56.060589 
	C129.402756,55.435474 127.558495,53.810257 127.902267,49.995895 
	C128.252472,46.110142 127.979706,42.168247 127.979706,38.167168 
	C122.528389,38.167168 117.736595,38.167168 112.462936,37.835381 
	C111.971672,39.568661 111.085442,41.294815 111.054047,43.036388 
	C110.867531,53.382282 110.870499,53.216808 101.188873,56.905682 
	C98.321465,57.998215 95.921982,60.318829 92.941986,62.675816 
	C90.575676,64.603523 87.519974,66.097435 85.979836,68.545021 
	C82.232964,74.499489 79.189629,80.896660 75.334763,87.637756 
	C72.667130,97.897614 72.861702,107.823280 79.405167,116.714096 
	C80.510590,118.216095 82.824547,118.828636 85.332268,120.015892 
	C93.627693,123.330299 101.923119,126.644707 109.908302,130.451752 
	C110.262878,131.351944 110.920074,132.250122 110.926041,133.152618 
	C111.000458,144.409943 111.080338,155.670044 110.840103,166.922623 
	C110.814217,168.135071 108.788826,169.304825 107.716530,170.564682 
	C107.716530,170.564682 107.645729,170.588791 107.469711,169.900314 
	C106.624794,169.613434 105.779869,169.326553 104.991440,169.007736 
	C104.991440,169.007736 104.992393,169.072617 104.741608,168.616104 
z"/>
<path fill="#027535" opacity="1.000000" stroke="none" 
	d="
M232.406342,140.855865 
	C232.061325,138.684631 232.078308,136.325378 231.976227,133.971298 
	C231.497742,122.936447 230.975403,111.903488 230.520035,100.867737 
	C230.497574,100.322853 230.956757,99.758102 231.507111,99.096054 
	C232.541214,102.357697 233.259872,105.725883 233.774612,109.772003 
	C233.702057,118.685005 233.833405,126.920097 233.964722,135.155182 
	C233.547638,136.993515 233.130554,138.831863 232.406342,140.855865 
z"/>
<path fill="#03670E" opacity="1.000000" stroke="none" 
	d="
M8.094545,104.442734 
	C8.108294,107.227104 8.057359,110.428719 8.012741,113.630424 
	C7.897948,121.867928 7.785955,130.105469 7.444786,138.686646 
	C6.182568,127.609009 6.238923,116.213768 8.094545,104.442734 
z"/>
<path fill="#F2FCFC" opacity="1.000000" stroke="none" 
	d="
M234.366852,134.950562 
	C233.833405,126.920097 233.702057,118.685005 233.836731,110.184845 
	C234.405853,114.070602 234.857773,118.217407 234.969955,122.373398 
	C235.081146,126.492767 234.849991,130.621384 234.366852,134.950562 
z"/>
<path fill="#BBEBED" opacity="1.000000" stroke="none" 
	d="
M226.477448,79.856064 
	C225.967361,79.233940 225.768173,78.469452 225.469727,77.426346 
	C225.843109,78.003059 226.315735,78.858376 226.477448,79.856064 
z"/>
<path fill="#FBFCFA" opacity="1.000000" stroke="none" 
	d="
M110.218544,129.959122 
	C101.923119,126.644707 93.627693,123.330299 84.815033,119.678024 
	C79.257591,115.791435 76.560326,110.716187 76.049767,104.795776 
	C75.544830,98.940529 75.890419,93.011940 75.862930,87.115517 
	C79.189629,80.896660 82.232964,74.499489 85.979836,68.545021 
	C87.519974,66.097435 90.575676,64.603523 93.466721,62.330734 
	C99.204453,59.987103 104.486031,58.143497 109.584625,55.886536 
	C110.945053,55.284325 112.533279,53.489635 112.659454,52.117584 
	C113.084297,47.497768 112.897575,42.821709 112.944801,38.167168 
	C117.736595,38.167168 122.528389,38.167168 127.979706,38.167168 
	C127.979706,42.168247 128.252472,46.110142 127.902267,49.995895 
	C127.558495,53.810257 129.402756,55.435474 132.689346,56.060589 
	C143.553726,58.127018 151.957535,64.117859 158.080902,73.005821 
	C160.726639,76.846024 161.940140,81.672966 163.892700,86.259468 
	C156.459702,88.793579 150.234894,90.915787 143.324890,93.271599 
	C141.335526,86.092575 137.376480,80.386078 129.791214,77.030655 
	C128.661270,77.772621 128.022156,78.563789 128.017166,79.358955 
	C127.953705,89.449196 127.958649,99.540184 128.031845,109.630348 
	C128.037338,110.385986 128.696899,111.136879 129.052399,111.889984 
	C135.563309,114.256699 142.275543,116.186012 148.547256,119.072441 
	C167.085114,127.604126 172.990112,141.283157 167.151733,161.211273 
	C163.037933,175.252930 153.872589,185.360397 139.581116,190.126617 
	C136.741913,191.073502 133.712570,191.612625 131.079224,192.947845 
	C129.699066,193.647644 128.295898,195.583206 128.112793,197.106171 
	C127.680939,200.697800 127.974258,204.376602 127.974258,208.297958 
	C127.000023,208.469925 126.215691,208.532867 125.476738,208.750137 
	C114.761330,211.900726 112.870506,210.591019 112.843391,199.959518 
	C112.837898,197.806717 112.842606,195.653885 112.842606,194.264755 
	C95.765976,191.391464 82.187386,184.330231 74.112869,167.845551 
	C73.054085,165.000519 72.242439,162.792465 71.334167,160.321533 
	C73.936005,159.439087 75.958748,158.883835 77.870972,158.069138 
	C79.942474,157.186600 81.910934,156.062180 83.924332,155.043243 
	C85.068420,155.086273 86.408081,155.540604 87.324493,155.104828 
	C92.790962,152.505371 94.333580,156.521622 96.591591,160.038116 
	C98.321297,162.731842 100.777962,164.958786 103.187317,167.954330 
	C103.973015,168.701080 104.482704,168.886841 104.992393,169.072617 
	C104.992393,169.072617 104.991440,169.007736 105.125969,169.300156 
	C106.055573,169.924652 106.850655,170.256714 107.645729,170.588791 
	C107.645729,170.588791 107.716530,170.564682 107.950775,170.748016 
	C109.457191,171.235413 110.729362,171.539490 112.396255,171.680756 
	C112.856628,158.585052 112.942108,145.652161 112.941589,132.719269 
	C112.941559,131.892319 112.275253,131.065384 111.649216,130.125946 
	C110.992531,129.995316 110.605537,129.977219 110.218544,129.959122 
M106.290421,106.866615 
	C108.333702,107.320152 110.376976,107.773689 112.891289,108.331772 
	C112.891289,98.073257 112.920616,88.316895 112.814140,78.562004 
	C112.808121,78.010880 111.686531,77.471924 110.348442,76.998123 
	C106.860001,79.825706 102.898926,82.238663 99.980072,85.565918 
	C93.613831,92.822899 96.800400,103.248878 106.290421,106.866615 
M129.038330,136.016800 
	C128.751434,136.144333 128.213715,136.271057 128.213287,136.399506 
	C128.174911,148.202530 128.177628,160.005692 128.177628,172.139450 
	C129.688400,171.606979 130.720871,171.243073 132.480927,170.899078 
	C135.560364,168.314423 138.842133,165.927856 141.641022,163.068588 
	C143.242294,161.432785 144.868668,159.112122 145.092407,156.955475 
	C146.305511,145.261856 142.778320,139.885849 129.038330,136.016800 
z"/>
<path fill="#08731D" opacity="1.000000" stroke="none" 
	d="
M112.703873,38.001274 
	C112.897575,42.821709 113.084297,47.497768 112.659454,52.117584 
	C112.533279,53.489635 110.945053,55.284325 109.584625,55.886536 
	C104.486031,58.143497 99.204453,59.987103 93.649765,62.031174 
	C95.921982,60.318829 98.321465,57.998215 101.188873,56.905682 
	C110.870499,53.216808 110.867531,53.382282 111.054047,43.036388 
	C111.085442,41.294815 111.971672,39.568661 112.703873,38.001274 
z"/>
<path fill="#047029" opacity="1.000000" stroke="none" 
	d="
M75.598846,87.376633 
	C75.890419,93.011940 75.544830,98.940529 76.049767,104.795776 
	C76.560326,110.716187 79.257591,115.791435 84.438972,119.596146 
	C82.824547,118.828636 80.510590,118.216095 79.405167,116.714096 
	C72.861702,107.823280 72.667130,97.897614 75.598846,87.376633 
z"/>
<path fill="#056E0F" opacity="1.000000" stroke="none" 
	d="
M112.001541,171.843582 
	C110.729362,171.539490 109.457191,171.235413 107.937981,170.712860 
	C108.788826,169.304825 110.814217,168.135071 110.840103,166.922623 
	C111.080338,155.670044 111.000458,144.409943 110.926041,133.152618 
	C110.920074,132.250122 110.262878,131.351944 110.063423,130.205444 
	C110.605537,129.977219 110.992531,129.995316 111.685608,130.577881 
	C111.994980,144.709412 111.998260,158.276505 112.001541,171.843582 
z"/>
<path fill="#0E803C" opacity="1.000000" stroke="none" 
	d="
M83.543304,155.039154 
	C81.910934,156.062180 79.942474,157.186600 77.870972,158.069138 
	C75.958748,158.883835 73.936005,159.439087 71.334167,160.321533 
	C72.242439,162.792465 73.054085,165.000519 73.884079,167.580612 
	C72.639709,165.511551 71.004158,163.159500 70.384537,160.564819 
	C70.235405,159.940338 73.348022,158.249710 75.150421,157.515045 
	C77.729485,156.463776 80.483162,155.840881 83.543304,155.039154 
z"/>
<path fill="#1D6B09" opacity="1.000000" stroke="none" 
	d="
M129.031921,111.429131 
	C128.696899,111.136879 128.037338,110.385986 128.031845,109.630348 
	C127.958649,99.540184 127.953705,89.449196 128.017166,79.358955 
	C128.022156,78.563789 128.661270,77.772621 129.429306,77.055923 
	C129.569260,82.916542 129.179489,88.698143 129.032608,94.485916 
	C128.893265,99.976677 129.008301,105.473900 129.031921,111.429131 
z"/>
<path fill="#056E0F" opacity="1.000000" stroke="none" 
	d="
M107.557724,170.244553 
	C106.850655,170.256714 106.055573,169.924652 105.097725,169.316132 
	C105.779869,169.326553 106.624794,169.613434 107.557724,170.244553 
z"/>
<path fill="#056E0F" opacity="1.000000" stroke="none" 
	d="
M104.867004,168.844360 
	C104.482704,168.886841 103.973015,168.701080 103.404793,168.241882 
	C103.811378,168.184341 104.276497,168.400223 104.867004,168.844360 
z"/>
<path fill="#01823B" opacity="1.000000" stroke="none" 
	d="
M129.900681,136.121246 
	C142.778320,139.885849 146.305511,145.261856 145.092407,156.955475 
	C144.868668,159.112122 143.242294,161.432785 141.641022,163.068588 
	C138.842133,165.927856 135.560364,168.314423 131.874985,170.630310 
	C130.512161,168.926971 129.243271,167.540955 129.101791,166.048080 
	C128.777573,162.627243 128.907349,159.150909 129.026993,155.703156 
	C129.253586,149.173599 129.602554,142.648315 129.900681,136.121246 
z"/>
<path fill="#02823B" opacity="1.000000" stroke="none" 
	d="
M105.896690,106.207130 
	C96.800400,103.248878 93.613831,92.822899 99.980072,85.565918 
	C102.898926,82.238663 106.860001,79.825706 110.722343,77.438065 
	C111.096245,86.907036 111.096245,95.936058 111.096245,104.838783 
	C109.058067,105.375160 107.477379,105.791145 105.896690,106.207130 
z"/>
<path fill="#05805A" opacity="1.000000" stroke="none" 
	d="
M106.093552,106.536873 
	C107.477379,105.791145 109.058067,105.375160 111.096245,104.838783 
	C111.096245,95.936058 111.096245,86.907036 111.090195,77.402664 
	C111.686531,77.471924 112.808121,78.010880 112.814140,78.562004 
	C112.920616,88.316895 112.891289,98.073257 112.891289,108.331772 
	C110.376976,107.773689 108.333702,107.320152 106.093552,106.536873 
z"/>
<path fill="#0499B5" opacity="1.000000" stroke="none" 
	d="
M112.396255,171.680756 
	C111.998260,158.276505 111.994980,144.709412 111.955299,130.690399 
	C112.275253,131.065384 112.941559,131.892319 112.941589,132.719269 
	C112.942108,145.652161 112.856628,158.585052 112.396255,171.680756 
z"/>
<path fill="#1B690C" opacity="1.000000" stroke="none" 
	d="
M129.469513,136.069031 
	C129.602554,142.648315 129.253586,149.173599 129.026993,155.703156 
	C128.907349,159.150909 128.777573,162.627243 129.101791,166.048080 
	C129.243271,167.540955 130.512161,168.926971 131.511200,170.620361 
	C130.720871,171.243073 129.688400,171.606979 128.177628,172.139450 
	C128.177628,160.005692 128.174911,148.202530 128.213287,136.399506 
	C128.213715,136.271057 128.751434,136.144333 129.469513,136.069031 
z"/>
</svg>